<?xml version="1.0" encoding="UTF-8"?>
<svg width="32px" height="32px" viewBox="0 0 32 32" version="1.1" xmlns="http://www.w3.org/2000/svg">
    <circle cx="16" cy="16" r="15" fill="#2c3e50" stroke="#34495e" stroke-width="2"/>
    <path d="M16,1 C7.716,1 1,7.716 1,16 C1,24.284 7.716,31 16,31 C24.284,31 31,24.284 31,16 C31,7.716 24.284,1 16,1 Z M16,3 C23.18,3 29,8.82 29,16 C29,23.18 23.18,29 16,29 C8.82,29 3,23.18 3,16 C3,8.82 8.82,3 16,3 Z" fill="#7f8c8d"/>
    <path d="M16,3 C12.134,3 8.616,4.577 6.001,7.001 C3.386,9.425 2,12.134 2,16 C2,19.866 3.386,22.575 6.001,24.999 C8.616,27.423 12.134,29 16,29 C19.866,29 23.384,27.423 25.999,24.999 C28.614,22.575 30,19.866 30,16 C30,12.134 28.614,9.425 25.999,7.001 C23.384,4.577 19.866,3 16,3 Z" fill="none" stroke="#34495e" stroke-width="2"/>
    <path d="M3,16 L29,16 M16,3 L16,29 M6,8 C8,10 14,12 16,12 C18,12 24,10 26,8 M6,24 C8,22 14,20 16,20 C18,20 24,22 26,24" stroke="#34495e" stroke-width="2" fill="none"/>
</svg>